<svg xmlns="http://www.w3.org/2000/svg" xmlns:xlink="http://www.w3.org/1999/xlink" viewBox="0 0 512 512"><defs><linearGradient id="linear-gradient" x1="255.96" y1="472.19" x2="255.96" y2="30.27" gradientUnits="userSpaceOnUse"><stop offset="0" stop-color="#e6e7e8"/><stop offset="1" stop-color="#fff"/></linearGradient><linearGradient id="linear-gradient-2" x1="255.95" y1="442.71" x2="255.95" y2="59.75" gradientUnits="userSpaceOnUse"><stop offset="0" stop-color="#e67925"/><stop offset="1" stop-color="#f3bd18"/></linearGradient></defs><title>star_half_full</title><g style="isolation:isolate"><g id="Layer_1" data-name="Layer 1"><image width="2031" height="1958" transform="translate(12.34 20.98) scale(0.24)" opacity="0.5" style="mix-blend-mode:multiply"/><path d="M144.32,472.19a48.69,48.69,0,0,1-28.79-9.42c-22.47-16.34-24-44.25-15.85-64.07l28.53-87.76L53.48,256.71c-18.16-11.31-33.3-34.84-24.73-61.23,7-21.58,27-35,52.13-35,1.5,0,2.76.05,3.72.11l92.34,0,28.43-87.9C210.51,52,228.2,30.27,256,30.27s45.4,21.7,50.47,42.52l28.46,87.76,92.46-.09c.9-.05,2.08-.09,3.48-.09,25.25,0,45.3,13.44,52.34,35.08,8.58,26.44-6.6,49.9-24.82,61.16l-74.61,54.21,28.62,87.85c8,19.82,6.47,47.76-16,64.07a48.58,48.58,0,0,1-28.74,9.42c-18,0-31.88-9.86-36.92-14L256,403.78l-74.77,54.48c-5,4.07-18.89,13.92-36.92,13.92Z" fill="url(#linear-gradient)"/><path d="M162.87,299.66,69.79,232.12s-18.47-10.71-13-27.54,26.67-14.51,26.67-14.51l114.93,0L233.8,80.64s4.48-20.9,22.15-20.9,22,20.9,22,20.9l35.48,109.41,115-.11s21.23-2.19,26.7,14.63S442.07,232,442.07,232l-93,67.58L384.71,409s8.65,19.54-5.65,29.94S349,435,349,435l-93-67.64L163.06,435s-15.89,14.27-30.19,3.88S127.32,409,127.32,409l35.55-109.38ZM256,339l0,0,107.29,78.08L322.16,290.85l107.38-78L296.83,213,256,86.88Z" fill="url(#linear-gradient-2)"/></g></g></svg>