<svg xmlns="http://www.w3.org/2000/svg" xmlns:xlink="http://www.w3.org/1999/xlink" viewBox="0 0 512 512"><defs><linearGradient id="linear-gradient" x1="255.89" y1="472.23" x2="255.89" y2="30.31" gradientUnits="userSpaceOnUse"><stop offset="0" stop-color="#e6e7e8"/><stop offset="1" stop-color="#fff"/></linearGradient><linearGradient id="linear-gradient-2" x1="255.88" y1="442.75" x2="255.88" y2="59.79" gradientUnits="userSpaceOnUse"><stop offset="0" stop-color="#e67925"/><stop offset="1" stop-color="#f3bd18"/></linearGradient></defs><title>star_empty</title><g style="isolation:isolate"><g id="Layer_1" data-name="Layer 1"><image width="2031" height="1959" transform="translate(12.34 20.9) scale(0.24)" opacity="0.5" style="mix-blend-mode:multiply"/><path d="M144.26,472.23a48.7,48.7,0,0,1-28.79-9.42c-22.47-16.35-24-44.25-15.84-64.07L128.15,311,53.4,256.75c-18.15-11.31-33.29-34.84-24.73-61.22,7-21.59,27-35,52.13-35,1.5,0,2.77.05,3.72.11l92.35,0,28.44-87.9c5.13-20.78,22.83-42.47,50.57-42.47s45.4,21.7,50.48,42.52l28.45,87.76,92.45-.09c.9-.05,2.08-.09,3.48-.09,25.26,0,45.32,13.44,52.35,35.08,8.58,26.44-6.6,49.9-24.82,61.16l-74.61,54.21,28.62,87.85c8,19.82,6.47,47.76-16,64.07a48.57,48.57,0,0,1-28.74,9.42c-18,0-31.87-9.85-36.92-14l-74.72-54.37-74.78,54.48c-5,4.07-18.89,13.92-36.92,13.92Z" fill="url(#linear-gradient)"/><path d="M162.81,299.7,69.72,232.16s-18.47-10.71-13-27.54,26.67-14.51,26.67-14.51l114.93,0L233.73,80.68s4.47-20.9,22.15-20.9,22,20.9,22,20.9L313.38,190.1l115-.11s21.24-2.19,26.7,14.63S442,232,442,232l-93,67.58L384.64,409s8.64,19.54-5.65,29.94S348.89,435,348.89,435l-93-67.64L163,435.08S147.1,449.35,132.8,439s-5.54-29.87-5.54-29.87L162.81,299.7Zm-14.14,117.5,107.26-78.15,107.29,78.08L322.09,290.89l107.38-78L296.76,213,255.82,86.74,215,213l-132.7,0,107.45,78Z" fill="url(#linear-gradient-2)"/></g></g></svg>