<svg xmlns="http://www.w3.org/2000/svg" xmlns:xlink="http://www.w3.org/1999/xlink" viewBox="0 0 512 512"><defs><linearGradient id="linear-gradient" x1="255.87" y1="472.23" x2="255.87" y2="30.31" gradientUnits="userSpaceOnUse"><stop offset="0" stop-color="#e6e7e8"/><stop offset="1" stop-color="#fff"/></linearGradient><linearGradient id="linear-gradient-2" x1="255.86" y1="442.75" x2="255.86" y2="59.79" gradientUnits="userSpaceOnUse"><stop offset="0" stop-color="#e67925"/><stop offset="1" stop-color="#f3bd18"/></linearGradient></defs><title>star_full</title><g style="isolation:isolate"><g id="Layer_1" data-name="Layer 1"><image width="2031" height="1959" transform="translate(12.18 20.9) scale(0.24)" opacity="0.5" style="mix-blend-mode:multiply"/><path d="M144.24,472.23a48.69,48.69,0,0,1-28.79-9.42c-22.47-16.34-24-44.25-15.85-64.07L128.13,311,53.39,256.75c-18.15-11.31-33.3-34.84-24.74-61.22,7-21.59,27-35,52.13-35,1.5,0,2.76.05,3.72.11l92.35,0,28.44-87.9c5.14-20.78,22.83-42.47,50.57-42.47S301.26,52,306.34,72.83l28.46,87.76,92.45-.09c.9-.05,2.08-.09,3.49-.09,25.26,0,45.32,13.45,52.34,35.1,8.58,26.43-6.6,49.89-24.81,61.15l-74.61,54.21,28.61,87.84c8,19.82,6.47,47.77-16,64.08a48.58,48.58,0,0,1-28.74,9.42c-18,0-31.88-9.85-36.92-14l-74.72-54.37-74.77,54.48c-5,4.07-18.89,13.92-36.92,13.92Z" fill="url(#linear-gradient)"/><path d="M162.79,299.7,69.71,232.16s-18.47-10.71-13-27.54,26.67-14.51,26.67-14.51l114.93,0L233.72,80.68s4.48-20.9,22.14-20.9,22,20.9,22,20.9L313.36,190.1l115-.11s21.24-2.19,26.7,14.63S442,232,442,232l-93,67.58L384.61,409s8.65,19.54-5.64,29.94-30.1-3.95-30.1-3.95l-93-67.64L163,435.08s-15.89,14.27-30.19,3.88-5.55-29.87-5.55-29.87Z" fill="url(#linear-gradient-2)"/></g></g></svg>